<svg width="22" height="25" viewBox="0 0 22 25" fill="none" xmlns="http://www.w3.org/2000/svg">
<path d="M17.848 12.5C18.722 12.396 19.47 12.228 19.928 11.964C20.8392 11.4298 21.5022 10.5569 21.7721 9.53567C22.0421 8.51449 21.8972 7.42797 21.3691 6.51322C20.8409 5.59847 19.9724 4.92976 18.953 4.653C17.9337 4.37625 16.8462 4.51393 15.928 5.036C15.47 5.3 14.95 5.864 14.424 6.57C14.772 5.76 15 5.028 15 4.5C15 3.43913 14.5786 2.42172 13.8284 1.67157C13.0783 0.921427 12.0609 0.5 11 0.5C9.93912 0.5 8.92171 0.921427 8.17156 1.67157C7.42142 2.42172 6.99999 3.43913 6.99999 4.5C6.99999 5.028 7.22799 5.76 7.57599 6.57C7.04999 5.864 6.52999 5.3 6.07199 5.036C5.15376 4.51393 4.0663 4.37625 3.04693 4.653C2.02756 4.92976 1.15904 5.59847 0.630891 6.51322C0.102745 7.42797 -0.0421455 8.51449 0.227839 9.53567C0.497823 10.5569 1.16076 11.4298 2.07199 11.964C2.52999 12.228 3.27799 12.396 4.15199 12.5C3.27799 12.604 2.52999 12.772 2.07199 13.036C1.61341 13.2967 1.21093 13.6456 0.88772 14.0625C0.564514 14.4794 0.326965 14.9561 0.18875 15.4652C0.0505346 15.9743 0.0143837 16.5057 0.0823782 17.0288C0.150373 17.552 0.321169 18.0565 0.584935 18.5133C0.848701 18.9702 1.20023 19.3703 1.61927 19.6907C2.03832 20.0112 2.51661 20.2456 3.0266 20.3804C3.5366 20.5152 4.06823 20.5479 4.59089 20.4764C5.11355 20.4049 5.61691 20.2308 6.07199 19.964C6.52999 19.7 7.04999 19.136 7.57599 18.43C7.22799 19.24 6.99999 19.972 6.99999 20.5C6.99999 21.5609 7.42142 22.5783 8.17156 23.3284C8.92171 24.0786 9.93912 24.5 11 24.5C12.0609 24.5 13.0783 24.0786 13.8284 23.3284C14.5786 22.5783 15 21.5609 15 20.5C15 19.972 14.772 19.24 14.424 18.43C14.95 19.136 15.47 19.7 15.928 19.964C16.3831 20.2308 16.8864 20.4049 17.4091 20.4764C17.9317 20.5479 18.4634 20.5152 18.9734 20.3804C19.4834 20.2456 19.9617 20.0112 20.3807 19.6907C20.7998 19.3703 21.1513 18.9702 21.415 18.5133C21.6788 18.0565 21.8496 17.552 21.9176 17.0288C21.9856 16.5057 21.9494 15.9743 21.8112 15.4652C21.673 14.9561 21.4355 14.4794 21.1123 14.0625C20.789 13.6456 20.3866 13.2967 19.928 13.036C19.47 12.772 18.722 12.604 17.848 12.5ZM13 4.5C12.9772 4.63815 12.9471 4.775 12.91 4.91C12.8313 5.17667 12.7093 5.49933 12.544 5.878C12.1629 6.7153 11.7376 7.53178 11.27 8.324L11 8.784L10.73 8.324C10.2623 7.53178 9.83708 6.7153 9.45599 5.878C9.31322 5.56357 9.19097 5.24023 9.08999 4.91C9.05283 4.775 9.02279 4.63815 8.99999 4.5C8.99999 3.96957 9.2107 3.46086 9.58578 3.08579C9.96085 2.71071 10.4696 2.5 11 2.5C11.5304 2.5 12.0391 2.71071 12.4142 3.08579C12.7893 3.46086 13 3.96957 13 4.5ZM2.33999 7.5C2.60521 7.04065 3.04205 6.70548 3.55439 6.5682C4.06674 6.43093 4.61263 6.5028 5.07199 6.768C5.18091 6.85711 5.28506 6.95191 5.38399 7.052C5.57332 7.252 5.79066 7.51867 6.03599 7.852C6.52599 8.518 7.03999 9.346 7.51999 10.178L7.77999 10.642L7.24999 10.646C6.32918 10.6549 5.40855 10.6148 4.49199 10.526C4.14877 10.4927 3.80806 10.4373 3.47199 10.36C3.33651 10.3244 3.20299 10.2816 3.07199 10.232C2.61264 9.96678 2.27747 9.52994 2.14019 9.0176C2.00292 8.50525 2.07478 7.95936 2.33999 7.5ZM5.07199 18.232C4.61287 18.493 4.06914 18.5619 3.55946 18.4235C3.04978 18.2851 2.61551 17.9508 2.35144 17.4934C2.08737 17.036 2.01492 16.4928 2.14991 15.9822C2.28491 15.4716 2.61638 15.0351 3.07199 14.768L3.16599 14.728C3.23932 14.7013 3.34132 14.672 3.47199 14.64C3.74132 14.576 4.08132 14.5207 4.49199 14.474C5.40855 14.3852 6.32918 14.3451 7.24999 14.354C7.42999 14.354 7.60732 14.3553 7.78199 14.358L7.51999 14.822C7.03999 15.654 6.52599 16.482 6.03599 17.148C5.83546 17.4285 5.617 17.6957 5.38199 17.948C5.28371 18.048 5.18023 18.1428 5.07199 18.232ZM13 20.5C13 21.0304 12.7893 21.5391 12.4142 21.9142C12.0391 22.2893 11.5304 22.5 11 22.5C10.4696 22.5 9.96085 22.2893 9.58578 21.9142C9.2107 21.5391 8.99999 21.0304 8.99999 20.5C9.02272 20.3612 9.05277 20.2237 9.08999 20.088C9.16732 19.824 9.28932 19.502 9.45599 19.122C9.78799 18.366 10.248 17.506 10.73 16.676L11 16.216L11.27 16.676C11.752 17.506 12.21 18.366 12.544 19.122C12.7093 19.502 12.8313 19.8247 12.91 20.09C12.951 20.224 12.9811 20.3611 13 20.5ZM19.66 7.5C19.9252 7.95936 19.9971 8.50525 19.8598 9.0176C19.7225 9.52994 19.3873 9.96678 18.928 10.232C18.797 10.2816 18.6635 10.3244 18.528 10.36C18.2587 10.424 17.9187 10.4793 17.508 10.526C16.684 10.616 15.712 10.648 14.75 10.646C14.57 10.646 14.3927 10.6447 14.218 10.642L14.48 10.178C14.96 9.346 15.474 8.518 15.964 7.852C16.1645 7.57152 16.383 7.30429 16.618 7.052C16.7113 6.95333 16.7873 6.88 16.846 6.832L16.928 6.768C17.3873 6.5028 17.9332 6.43093 18.4456 6.5682C18.9579 6.70548 19.3948 7.04065 19.66 7.5ZM16.928 18.232C16.8198 18.1435 16.7163 18.0494 16.618 17.95C16.383 17.6977 16.1645 17.4305 15.964 17.15C15.4284 16.4002 14.933 15.6224 14.48 14.82L14.22 14.356L14.75 14.352C15.71 14.35 16.684 14.382 17.508 14.472C17.9187 14.5187 18.2587 14.574 18.528 14.638C18.6587 14.67 18.7607 14.6993 18.834 14.726L18.93 14.766C19.1593 14.8964 19.3605 15.0708 19.5221 15.2793C19.6837 15.4877 19.8025 15.7261 19.8716 15.9806C19.9407 16.2352 19.9588 16.5009 19.9248 16.7624C19.8908 17.024 19.8054 17.2762 19.6735 17.5047C19.5416 17.7331 19.3659 17.9332 19.1563 18.0934C18.9468 18.2536 18.7077 18.3708 18.4527 18.4382C18.1977 18.5056 17.9319 18.5219 17.6705 18.4862C17.4092 18.4505 17.1575 18.3634 16.93 18.23L16.928 18.232ZM11 14.5C10.4696 14.5 9.96085 14.2893 9.58578 13.9142C9.2107 13.5391 8.99999 13.0304 8.99999 12.5C8.99999 11.9696 9.2107 11.4609 9.58578 11.0858C9.96085 10.7107 10.4696 10.5 11 10.5C11.5304 10.5 12.0391 10.7107 12.4142 11.0858C12.7893 11.4609 13 11.9696 13 12.5C13 13.0304 12.7893 13.5391 12.4142 13.9142C12.0391 14.2893 11.5304 14.5 11 14.5Z" fill="#128EA8"/>
</svg>
