<svg width="32" height="33" viewBox="0 0 32 33" fill="none" xmlns="http://www.w3.org/2000/svg">
<path d="M8 24.2998C8 24.565 7.89464 24.8194 7.70711 25.0069C7.51957 25.1944 7.26522 25.2998 7 25.2998C6.73478 25.2998 6.48043 25.1944 6.29289 25.0069C6.10536 24.8194 6 24.565 6 24.2998L6 8.69981C6 8.43459 6.10536 8.18024 6.29289 7.9927C6.48043 7.80516 6.73478 7.69981 7 7.69981C7.26522 7.69981 7.51957 7.80516 7.70711 7.9927C7.89464 8.18024 8 8.43459 8 8.69981L8 24.2998ZM4 20.2998C4 20.565 3.89464 20.8194 3.70711 21.0069C3.51957 21.1944 3.26522 21.2998 3 21.2998C2.73478 21.2998 2.48043 21.1944 2.29289 21.0069C2.10536 20.8194 2 20.565 2 20.2998L2 12.6998C2 12.4346 2.10536 12.1802 2.29289 11.9927C2.48043 11.8052 2.73478 11.6998 3 11.6998C3.26522 11.6998 3.51957 11.8052 3.70711 11.9927C3.89464 12.1802 4 12.4346 4 12.6998L4 20.2998Z" fill="#128EA8"/>
<path d="M24.08 24.2998C24.08 24.565 24.1854 24.8194 24.3729 25.0069C24.5604 25.1944 24.8148 25.2998 25.08 25.2998C25.3452 25.2998 25.5996 25.1944 25.7871 25.0069C25.9747 24.8194 26.08 24.565 26.08 24.2998L26.08 8.69981C26.08 8.43459 25.9747 8.18024 25.7871 7.9927C25.5996 7.80516 25.3452 7.69981 25.08 7.69981C24.8148 7.69981 24.5604 7.80516 24.3729 7.9927C24.1854 8.18024 24.08 8.43459 24.08 8.69981L24.08 24.2998ZM28.08 20.2998C28.08 20.565 28.1854 20.8194 28.3729 21.0069C28.5604 21.1944 28.8148 21.2998 29.08 21.2998C29.3452 21.2998 29.5996 21.1944 29.7871 21.0069C29.9747 20.8194 30.08 20.565 30.08 20.2998L30.08 12.6998C30.08 12.4346 29.9747 12.1802 29.7871 11.9927C29.5996 11.8052 29.3452 11.6998 29.08 11.6998C28.8148 11.6998 28.5604 11.8052 28.3729 11.9927C28.1854 12.1802 28.08 12.4346 28.08 12.6998L28.08 20.2998Z" fill="#128EA8"/>
<path d="M6.89287 15.7929C6.70533 15.9804 6.59998 16.2348 6.59998 16.5C6.59998 16.7652 6.70533 17.0196 6.89287 17.2071C7.08041 17.3946 7.33476 17.5 7.59998 17.5H24.4C24.6652 17.5 24.9195 17.3946 25.1071 17.2071C25.2946 17.0196 25.4 16.7652 25.4 16.5C25.4 16.2348 25.2946 15.9804 25.1071 15.7929C24.9195 15.6054 24.6652 15.5 24.4 15.5H7.59998C7.33476 15.5 7.08041 15.6054 6.89287 15.7929Z" fill="#128EA8"/>
</svg>
