<svg width="29" height="28" viewBox="0 0 29 28" fill="none" xmlns="http://www.w3.org/2000/svg">
<path d="M14.3788 0.00390625C18.1006 0.00390625 18.565 0.0176045 20.0252 0.086096C21.4841 0.154588 22.4772 0.383349 23.3512 0.723067C24.2553 1.071 25.0169 1.54223 25.7785 2.30248C26.4751 2.98726 27.0141 3.81558 27.3579 4.72982C27.6963 5.60241 27.9264 6.5969 27.9949 8.05577C28.0593 9.51601 28.0771 9.98038 28.0771 13.7022C28.0771 17.424 28.0634 17.8884 27.9949 19.3487C27.9264 20.8075 27.6963 21.8007 27.3579 22.6746C27.0151 23.5894 26.4759 24.4179 25.7785 25.1019C25.0936 25.7982 24.2653 26.3373 23.3512 26.6814C22.4786 27.0197 21.4841 27.2498 20.0252 27.3183C18.565 27.3827 18.1006 27.4005 14.3788 27.4005C10.657 27.4005 10.1926 27.3868 8.73235 27.3183C7.27348 27.2498 6.28035 27.0197 5.4064 26.6814C4.4918 26.3382 3.66333 25.7991 2.97906 25.1019C2.28237 24.4173 1.74338 23.589 1.39964 22.6746C1.05992 21.802 0.831162 20.8075 0.762671 19.3487C0.698289 17.8884 0.680481 17.424 0.680481 13.7022C0.680481 9.98038 0.694179 9.51601 0.762671 8.05577C0.831162 6.59553 1.05992 5.60378 1.39964 4.72982C1.74242 3.81502 2.28154 2.98647 2.97906 2.30248C3.66352 1.60555 4.49194 1.06652 5.4064 0.723067C6.28035 0.383349 7.27211 0.154588 8.73235 0.086096C10.1926 0.0217139 10.657 0.00390625 14.3788 0.00390625ZM14.3788 6.85306C12.5623 6.85306 10.8202 7.57466 9.53571 8.85914C8.25124 10.1436 7.52964 11.8857 7.52964 13.7022C7.52964 15.5187 8.25124 17.2609 9.53571 18.5453C10.8202 19.8297 12.5623 20.5514 14.3788 20.5514C16.1953 20.5514 17.9375 19.8297 19.2218 18.5453C20.5063 17.2609 21.2279 15.5187 21.2279 13.7022C21.2279 11.8857 20.5063 10.1436 19.2218 8.85914C17.9375 7.57466 16.1953 6.85306 14.3788 6.85306ZM23.2827 6.5106C23.2827 6.05648 23.1023 5.62095 22.7812 5.29984C22.4601 4.97872 22.0245 4.79831 21.5704 4.79831C21.1163 4.79831 20.6807 4.97872 20.3596 5.29984C20.0385 5.62095 19.8581 6.05648 19.8581 6.5106C19.8581 6.96473 20.0385 7.40025 20.3596 7.72137C20.6807 8.04249 21.1163 8.22289 21.5704 8.22289C22.0245 8.22289 22.4601 8.04249 22.7812 7.72137C23.1023 7.40025 23.2827 6.96473 23.2827 6.5106ZM14.3788 9.59272C15.4686 9.59272 16.5139 10.0257 17.2846 10.7964C18.0553 11.567 18.4883 12.6123 18.4883 13.7022C18.4883 14.7921 18.0553 15.8374 17.2846 16.608C16.5139 17.3787 15.4686 17.8117 14.3788 17.8117C13.2889 17.8117 12.2436 17.3787 11.4729 16.608C10.7023 15.8374 10.2693 14.7921 10.2693 13.7022C10.2693 12.6123 10.7023 11.567 11.4729 10.7964C12.2436 10.0257 13.2889 9.59272 14.3788 9.59272Z" fill="white"/>
</svg>
