<svg width="24" height="24" viewBox="0 0 24 24" fill="none" xmlns="http://www.w3.org/2000/svg">
<g clip-path="url(#clip0_2054_704)">
<path d="M5.48097 1.99195C5.39242 1.87805 5.28065 1.78428 5.15308 1.71689C5.02551 1.6495 4.88505 1.61003 4.74105 1.60109C4.59705 1.59215 4.4528 1.61395 4.31787 1.66505C4.18294 1.71615 4.06043 1.79537 3.95847 1.89745L2.40747 3.44995C1.68297 4.17595 1.41597 5.20345 1.73247 6.10495C3.04757 9.83562 5.18421 13.2231 7.98447 16.017C10.7784 18.8172 14.1658 20.9539 17.8965 22.269C18.798 22.5855 19.8255 22.3185 20.5515 21.594L22.1025 20.043C22.2046 19.941 22.2838 19.8185 22.3349 19.6836C22.386 19.5486 22.4078 19.4044 22.3988 19.2604C22.3899 19.1164 22.3504 18.9759 22.283 18.8484C22.2156 18.7208 22.1219 18.609 22.008 18.5205L18.5475 15.8295C18.4257 15.7353 18.2841 15.6699 18.1335 15.6382C17.9828 15.6065 17.8269 15.6093 17.6775 15.6465L14.3925 16.467C13.954 16.5758 13.4948 16.5696 13.0593 16.449C12.6239 16.3284 12.227 16.0974 11.907 15.7785L8.22297 12.093C7.90375 11.7731 7.6725 11.3762 7.55162 10.9408C7.43074 10.5054 7.42431 10.0461 7.53297 9.60745L8.35497 6.32245C8.39211 6.17303 8.39494 6.01714 8.36325 5.86647C8.33155 5.7158 8.26616 5.57425 8.17197 5.45245L5.48097 1.99195ZM2.82597 0.766454C3.08847 0.503878 3.40382 0.30015 3.75108 0.168796C4.09835 0.0374423 4.46959 -0.0185307 4.84015 0.00459377C5.2107 0.0277182 5.5721 0.129411 5.90035 0.302919C6.22859 0.476428 6.51616 0.717781 6.74397 1.01095L9.43497 4.46995C9.92847 5.10445 10.1025 5.93095 9.90747 6.71095L9.08697 9.99595C9.04485 10.1661 9.04729 10.3443 9.09406 10.5132C9.14082 10.6821 9.23034 10.8362 9.35397 10.9605L13.0395 14.646C13.1639 14.7698 13.3182 14.8595 13.4874 14.9063C13.6567 14.9531 13.8351 14.9554 14.0055 14.913L17.289 14.0925C17.6739 13.9968 18.0756 13.9896 18.4637 14.0714C18.8519 14.1533 19.2164 14.322 19.53 14.565L22.989 17.256C24.2325 18.2235 24.3465 20.061 23.2335 21.1725L21.6825 22.7235C20.5725 23.8335 18.9135 24.321 17.367 23.7765C13.408 22.3853 9.81378 20.1191 6.85197 17.1465C3.87953 14.1851 1.6133 10.5914 0.221974 6.63295C-0.321026 5.08795 0.166474 3.42745 1.27647 2.31745L2.82597 0.766454Z" fill="#156D82"/>
</g>
<defs>
<clipPath id="clip0_2054_704">
<rect width="24" height="24" fill="white"/>
</clipPath>
</defs>
</svg>
