<svg width="26" height="30" viewBox="0 0 26 30" fill="none" xmlns="http://www.w3.org/2000/svg">
<path d="M15.17 1.97559V21.7188C15.1637 23.5014 14.0407 25.0205 12.464 25.6152C14.0415 25.0209 15.1657 23.502 15.172 21.7188V1.97559H15.17ZM12.3292 25.6631C11.9085 25.8054 11.4582 25.8827 10.9894 25.8828L10.9904 25.8838C11.4588 25.8837 11.9087 25.8052 12.3292 25.6631ZM10.3888 12.6035C9.69152 12.6497 9.01606 12.7749 8.37024 12.9688C9.01602 12.7748 9.69155 12.6498 10.3888 12.6035ZM24.6818 8.48047C24.7398 8.50147 24.7978 8.52251 24.8566 8.54199C24.7979 8.52253 24.7398 8.50147 24.6818 8.48047ZM18.7745 1.97559C19.1197 3.94387 20.2975 5.62525 21.9318 6.64453L21.9337 6.64648C23.0304 7.32978 24.2968 7.69139 25.589 7.68945V8.74121L25.5909 8.74219V12.6328C23.0212 12.6328 20.6413 11.8164 18.6984 10.4287V20.5156C18.6984 25.5615 14.606 29.6521 9.55774 29.6523C7.67411 29.6523 5.92237 29.0836 4.4679 28.1074C2.85583 26.4604 1.86243 24.2054 1.86243 21.7188C1.86251 17.7717 4.36789 14.411 7.87512 13.1338C4.36718 14.4107 1.86148 17.7713 1.86145 21.7188C1.86145 24.2055 2.85484 26.4604 4.46692 28.1074C2.02262 26.4675 0.414185 23.6791 0.414185 20.5156C0.414205 15.47 4.50685 11.379 9.55579 11.3789C9.97532 11.3787 10.395 11.408 10.8107 11.4648V12.584L10.8116 16.5176C10.4116 16.3907 9.98458 16.3223 9.54211 16.3223C7.23286 16.3225 5.36169 18.1932 5.36145 20.501C5.36145 22.1329 6.29683 23.5461 7.66125 24.2344L7.66223 24.2354C8.2275 24.5201 8.86527 24.6807 9.54114 24.6807C11.8459 24.6806 13.7148 22.817 13.7228 20.5156V0.772461H18.6974V1.4082C18.7149 1.59826 18.7396 1.78759 18.7726 1.97559H18.7745Z" fill="white"/>
</svg>
