<svg width="28" height="20" viewBox="0 0 28 20" fill="none" xmlns="http://www.w3.org/2000/svg">
<path d="M26.7754 2.24847C26.018 0.901087 25.1959 0.653253 23.5222 0.559006C21.8502 0.445561 17.6457 0.398438 14.0033 0.398438C10.3538 0.398438 6.14762 0.445561 4.47736 0.557261C2.8071 0.653253 1.98331 0.899341 1.21887 2.24847C0.438714 3.5941 0.0372925 5.91187 0.0372925 9.99241C0.0372925 9.9959 0.0372925 9.99764 0.0372925 9.99764C0.0372925 10.0011 0.0372925 10.0029 0.0372925 10.0029V10.0064C0.0372925 14.0695 0.438714 16.4047 1.21887 17.7363C1.98331 19.0837 2.80535 19.3281 4.47562 19.4415C6.14762 19.5393 10.3538 19.5968 14.0033 19.5968C17.6457 19.5968 21.8502 19.5393 23.5239 19.4433C25.1977 19.3298 26.0197 19.0855 26.7772 17.7381C27.5643 16.4064 27.9622 14.0712 27.9622 10.0081C27.9622 10.0081 27.9622 10.0029 27.9622 9.99939C27.9622 9.99939 27.9622 9.9959 27.9622 9.99415C27.9622 5.91187 27.5643 3.5941 26.7754 2.24847ZM10.5092 15.2336V4.76171L19.2357 9.99764L10.5092 15.2336Z" fill="white"/>
</svg>
