<svg width="10" height="7" viewBox="0 0 10 7" fill="none" xmlns="http://www.w3.org/2000/svg">
<path fill-rule="evenodd" clip-rule="evenodd" d="M0.359072 0.984438C0.393906 0.949515 0.435288 0.921808 0.480847 0.902903C0.526405 0.883998 0.575246 0.874268 0.624572 0.874268C0.673897 0.874268 0.722738 0.883998 0.768297 0.902903C0.813856 0.921808 0.855238 0.949515 0.890072 0.984438L5.12457 5.21969L9.35907 0.984438C9.39394 0.949572 9.43533 0.921914 9.48088 0.903045C9.52644 0.884176 9.57526 0.874464 9.62457 0.874464C9.67388 0.874464 9.7227 0.884176 9.76826 0.903045C9.81381 0.921914 9.85521 0.949572 9.89007 0.984438C9.92494 1.0193 9.95259 1.0607 9.97146 1.10625C9.99033 1.1518 10 1.20063 10 1.24994C10 1.29925 9.99033 1.34807 9.97146 1.39363C9.95259 1.43918 9.92494 1.48057 9.89007 1.51544L5.39007 6.01544C5.35524 6.05036 5.31386 6.07807 5.2683 6.09697C5.22274 6.11588 5.1739 6.12561 5.12457 6.12561C5.07525 6.12561 5.02641 6.11588 4.98085 6.09697C4.93529 6.07807 4.89391 6.05036 4.85907 6.01544L0.359072 1.51544C0.324149 1.4806 0.296442 1.43922 0.277537 1.39366C0.258633 1.3481 0.248901 1.29926 0.248901 1.24994C0.248901 1.20061 0.258633 1.15177 0.277537 1.10621C0.296442 1.06065 0.324149 1.01927 0.359072 0.984438Z" fill="black" fill-opacity="0.5"/>
</svg>
