<svg width="40" height="30" viewBox="0 0 40 30" fill="none" xmlns="http://www.w3.org/2000/svg">
<path fill-rule="evenodd" clip-rule="evenodd" d="M15 0C15.2569 0.000109299 15.5075 0.0793654 15.7178 0.226983C15.928 0.374601 16.0877 0.583412 16.175 0.825L25 25.09L28.825 14.57C28.9132 14.3293 29.0732 14.1216 29.2833 13.9749C29.4935 13.8283 29.7437 13.7497 30 13.75H38.75C39.0815 13.75 39.3995 13.8817 39.6339 14.1161C39.8683 14.3505 40 14.6685 40 15C40 15.3315 39.8683 15.6495 39.6339 15.8839C39.3995 16.1183 39.0815 16.25 38.75 16.25H30.875L26.175 29.175C26.0874 29.4163 25.9277 29.6248 25.7174 29.7721C25.5072 29.9195 25.2567 29.9985 25 29.9985C24.7433 29.9985 24.4928 29.9195 24.2826 29.7721C24.0723 29.6248 23.9126 29.4163 23.825 29.175L15 4.91L11.175 15.4275C11.0872 15.6686 10.9274 15.8769 10.7172 16.024C10.507 16.1712 10.2566 16.2501 10 16.25H1.25C0.918479 16.25 0.600537 16.1183 0.366117 15.8839C0.131696 15.6495 0 15.3315 0 15C0 14.6685 0.131696 14.3505 0.366117 14.1161C0.600537 13.8817 0.918479 13.75 1.25 13.75H9.125L13.825 0.825C13.9123 0.583412 14.072 0.374601 14.2822 0.226983C14.4925 0.0793654 14.7431 0.000109299 15 0Z" fill="#128EA8"/>
</svg>
