<svg width="36" height="36" viewBox="0 0 36 36" fill="none" xmlns="http://www.w3.org/2000/svg">
<path d="M19.125 10.125C19.125 9.82663 19.0065 9.54048 18.7955 9.32951C18.5845 9.11853 18.2984 9 18 9C17.7016 9 17.4155 9.11853 17.2045 9.32951C16.9935 9.54048 16.875 9.82663 16.875 10.125V11.5515L15.6398 10.8382C15.5118 10.7632 15.3702 10.7142 15.2232 10.6941C15.0762 10.674 14.9267 10.6832 14.7832 10.7211C14.6398 10.7591 14.5053 10.825 14.3874 10.9151C14.2696 11.0052 14.1707 11.1178 14.0965 11.2463C14.0223 11.3747 13.9743 11.5166 13.9552 11.6638C13.936 11.8109 13.9462 11.9603 13.9851 12.1035C14.024 12.2467 14.0908 12.3808 14.1817 12.498C14.2726 12.6153 14.3858 12.7134 14.5148 12.7868L15.75 13.5L14.5148 14.2132C14.3858 14.2866 14.2726 14.3847 14.1817 14.502C14.0908 14.6192 14.024 14.7533 13.9851 14.8965C13.9462 15.0397 13.936 15.1891 13.9552 15.3362C13.9743 15.4834 14.0223 15.6253 14.0965 15.7537C14.1707 15.8822 14.2696 15.9948 14.3874 16.0849C14.5053 16.175 14.6398 16.2409 14.7832 16.2789C14.9267 16.3168 15.0762 16.326 15.2232 16.3059C15.3702 16.2858 15.5118 16.2368 15.6398 16.1618L16.875 15.4485V16.875C16.875 17.1734 16.9935 17.4595 17.2045 17.6705C17.4155 17.8815 17.7016 18 18 18C18.2984 18 18.5845 17.8815 18.7955 17.6705C19.0065 17.4595 19.125 17.1734 19.125 16.875V15.4485L20.3602 16.1618C20.4882 16.2368 20.6298 16.2858 20.7768 16.3059C20.9238 16.326 21.0733 16.3168 21.2168 16.2789C21.3602 16.2409 21.4947 16.175 21.6126 16.0849C21.7304 15.9948 21.8293 15.8822 21.9035 15.7537C21.9777 15.6253 22.0257 15.4834 22.0448 15.3362C22.064 15.1891 22.0538 15.0397 22.0149 14.8965C21.976 14.7533 21.9092 14.6192 21.8183 14.502C21.7274 14.3847 21.6142 14.2866 21.4852 14.2132L20.25 13.5L21.4852 12.7868C21.6142 12.7134 21.7274 12.6153 21.8183 12.498C21.9092 12.3808 21.976 12.2467 22.0149 12.1035C22.0538 11.9603 22.064 11.8109 22.0448 11.6638C22.0257 11.5166 21.9777 11.3747 21.9035 11.2463C21.8293 11.1178 21.7304 11.0052 21.6126 10.9151C21.4947 10.825 21.3602 10.7591 21.2168 10.7211C21.0733 10.6832 20.9238 10.674 20.7768 10.6941C20.6298 10.7142 20.4882 10.7632 20.3602 10.8382L19.125 11.5515V10.125ZM12.375 20.25C12.0766 20.25 11.7905 20.3685 11.5795 20.5795C11.3685 20.7905 11.25 21.0766 11.25 21.375C11.25 21.6734 11.3685 21.9595 11.5795 22.1705C11.7905 22.3815 12.0766 22.5 12.375 22.5H23.625C23.9234 22.5 24.2095 22.3815 24.4205 22.1705C24.6315 21.9595 24.75 21.6734 24.75 21.375C24.75 21.0766 24.6315 20.7905 24.4205 20.5795C24.2095 20.3685 23.9234 20.25 23.625 20.25H12.375ZM12.375 24.75C12.0766 24.75 11.7905 24.8685 11.5795 25.0795C11.3685 25.2905 11.25 25.5766 11.25 25.875C11.25 26.1734 11.3685 26.4595 11.5795 26.6705C11.7905 26.8815 12.0766 27 12.375 27H23.625C23.9234 27 24.2095 26.8815 24.4205 26.6705C24.6315 26.4595 24.75 26.1734 24.75 25.875C24.75 25.5766 24.6315 25.2905 24.4205 25.0795C24.2095 24.8685 23.9234 24.75 23.625 24.75H12.375Z" fill="#128EA8"/>
<path d="M4.5 4.5C4.5 3.30653 4.97411 2.16193 5.81802 1.31802C6.66193 0.474106 7.80653 0 9 0L27 0C28.1935 0 29.3381 0.474106 30.182 1.31802C31.0259 2.16193 31.5 3.30653 31.5 4.5V31.5C31.5 32.6935 31.0259 33.8381 30.182 34.682C29.3381 35.5259 28.1935 36 27 36H9C7.80653 36 6.66193 35.5259 5.81802 34.682C4.97411 33.8381 4.5 32.6935 4.5 31.5V4.5ZM27 2.25H9C8.40326 2.25 7.83097 2.48705 7.40901 2.90901C6.98705 3.33097 6.75 3.90326 6.75 4.5V31.5C6.75 32.0967 6.98705 32.669 7.40901 33.091C7.83097 33.5129 8.40326 33.75 9 33.75H27C27.5967 33.75 28.169 33.5129 28.591 33.091C29.0129 32.669 29.25 32.0967 29.25 31.5V4.5C29.25 3.90326 29.0129 3.33097 28.591 2.90901C28.169 2.48705 27.5967 2.25 27 2.25Z" fill="#128EA8"/>
</svg>
