<svg width="36" height="34" viewBox="0 0 36 34" fill="none" xmlns="http://www.w3.org/2000/svg">
<path fill-rule="evenodd" clip-rule="evenodd" d="M18.0001 6.86507L16.3873 5.20725C12.7978 1.51747 6.20683 2.78501 3.82551 7.43562C2.70929 9.61555 2.4505 12.7744 4.50362 16.825C6.4777 20.7196 10.5828 25.3909 18 30.4871C25.4173 25.3904 29.5224 20.7188 31.4965 16.8241C33.5496 12.7734 33.2908 9.61461 32.1746 7.43485C29.7934 2.78469 23.2025 1.5173 19.6128 5.20725L18.0001 6.86507ZM18.0001 33.2C-15.1176 11.3177 7.80125 -5.76684 17.6195 3.26812C17.7487 3.38698 17.8756 3.51037 18.0001 3.63833C18.1245 3.51036 18.2515 3.38697 18.3806 3.26809C28.1989 -5.76687 51.1176 11.3156 18.0001 33.2Z" fill="#128EA8"/>
</svg>
