<svg width="28" height="28" viewBox="0 0 28 28" fill="none" xmlns="http://www.w3.org/2000/svg">
<path d="M14.3017 0.301758C18.0235 0.301758 18.4879 0.315456 19.9481 0.383948C21.407 0.452439 22.4001 0.681201 23.2741 1.02092C24.1782 1.36886 24.9398 1.84008 25.7014 2.60033C26.398 3.28511 26.937 4.11344 27.2809 5.02767C27.6192 5.90026 27.8493 6.89475 27.9178 8.35362C27.9822 9.81386 28 10.2782 28 14.0001C28 17.7219 27.9863 18.1863 27.9178 19.6465C27.8493 21.1054 27.6192 22.0985 27.2809 22.9725C26.938 23.8872 26.3988 24.7157 25.7014 25.3998C25.0165 26.0961 24.1882 26.6351 23.2741 26.9792C22.4015 27.3176 21.407 27.5477 19.9481 27.6162C18.4879 27.6806 18.0235 27.6984 14.3017 27.6984C10.5799 27.6984 10.1155 27.6847 8.65526 27.6162C7.19639 27.5477 6.20326 27.3176 5.32931 26.9792C4.41472 26.6361 3.58624 26.0969 2.90197 25.3998C2.20529 24.7152 1.66629 23.8868 1.32255 22.9725C0.982837 22.0999 0.754075 21.1054 0.685583 19.6465C0.621201 18.1863 0.603394 17.7219 0.603394 14.0001C0.603394 10.2782 0.617092 9.81386 0.685583 8.35362C0.754075 6.89338 0.982837 5.90163 1.32255 5.02767C1.66534 4.11287 2.20445 3.28432 2.90197 2.60033C3.58643 1.90341 4.41485 1.36438 5.32931 1.02092C6.20326 0.681201 7.19502 0.452439 8.65526 0.383948C10.1155 0.319565 10.5799 0.301758 14.3017 0.301758ZM14.3017 7.15091C12.4852 7.15091 10.7431 7.87251 9.45862 9.15699C8.17415 10.4415 7.45255 12.1836 7.45255 14.0001C7.45255 15.8166 8.17415 17.5588 9.45862 18.8431C10.7431 20.1276 12.4852 20.8492 14.3017 20.8492C16.1182 20.8492 17.8604 20.1276 19.1447 18.8431C20.4292 17.5588 21.1509 15.8166 21.1509 14.0001C21.1509 12.1836 20.4292 10.4415 19.1447 9.15699C17.8604 7.87251 16.1182 7.15091 14.3017 7.15091ZM23.2056 6.80845C23.2056 6.35433 23.0252 5.9188 22.7041 5.59769C22.383 5.27657 21.9474 5.09617 21.4933 5.09617C21.0392 5.09617 20.6036 5.27657 20.2825 5.59769C19.9614 5.9188 19.781 6.35433 19.781 6.80845C19.781 7.26258 19.9614 7.69811 20.2825 8.01922C20.6036 8.34034 21.0392 8.52074 21.4933 8.52074C21.9474 8.52074 22.383 8.34034 22.7041 8.01922C23.0252 7.69811 23.2056 7.26258 23.2056 6.80845ZM14.3017 9.89057C15.3915 9.89057 16.4369 10.3235 17.2075 11.0942C17.9782 11.8649 18.4112 12.9102 18.4112 14.0001C18.4112 15.0899 17.9782 16.1352 17.2075 16.9059C16.4369 17.6766 15.3915 18.1096 14.3017 18.1096C13.2118 18.1096 12.1665 17.6766 11.3959 16.9059C10.6252 16.1352 10.1922 15.0899 10.1922 14.0001C10.1922 12.9102 10.6252 11.8649 11.3959 11.0942C12.1665 10.3235 13.2118 9.89057 14.3017 9.89057Z" fill="black"/>
</svg>
