<svg width="8" height="13" viewBox="0 0 8 13" fill="none" xmlns="http://www.w3.org/2000/svg">
<path fill-rule="evenodd" clip-rule="evenodd" d="M0.645917 0.145917C0.692363 0.099354 0.747538 0.0624112 0.808283 0.0372047C0.869028 0.0119983 0.93415 -0.000976562 0.999917 -0.000976562C1.06568 -0.000976562 1.13081 0.0119983 1.19155 0.0372047C1.2523 0.0624112 1.30747 0.099354 1.35392 0.145917L7.35392 6.14592C7.40048 6.19236 7.43742 6.24754 7.46263 6.30828C7.48784 6.36903 7.50081 6.43415 7.50081 6.49992C7.50081 6.56568 7.48784 6.6308 7.46263 6.69155C7.43742 6.75229 7.40048 6.80747 7.35392 6.85392L1.35392 12.8539C1.26003 12.9478 1.13269 13.0005 0.999917 13.0005C0.867141 13.0005 0.739804 12.9478 0.645917 12.8539C0.55203 12.76 0.499285 12.6327 0.499285 12.4999C0.499285 12.3671 0.55203 12.2398 0.645917 12.1459L6.29292 6.49992L0.645917 0.853917C0.599354 0.807472 0.562411 0.752296 0.537204 0.691551C0.511998 0.630806 0.499023 0.565684 0.499023 0.499917C0.499023 0.43415 0.511998 0.369029 0.537204 0.308284C0.562411 0.247539 0.599354 0.192363 0.645917 0.145917Z" fill="white"/>
</svg>
