<svg width="40" height="30" viewBox="0 0 40 30" fill="none" xmlns="http://www.w3.org/2000/svg">
<path d="M7.78 4.1125C7.72944 3.59192 7.78834 3.06652 7.95291 2.57006C8.11748 2.07359 8.38409 1.61704 8.7356 1.22975C9.08711 0.842448 9.51576 0.532964 9.99399 0.321179C10.4722 0.109394 10.9895 -8.64083e-06 11.5125 5.11873e-10H17.5C17.8315 5.11873e-10 18.1495 0.131696 18.3839 0.366117C18.6183 0.600537 18.75 0.918479 18.75 1.25V2.205C18.75 3.945 17.5075 5.16 16.57 5.8775C16.4585 5.95926 16.3614 6.05894 16.2825 6.1725L16.2525 6.235L16.25 6.25V6.2575L16.2575 6.2825C16.2658 6.3075 16.2958 6.35167 16.3475 6.415C16.5404 6.61718 16.7693 6.78166 17.0225 6.9C17.725 7.25 18.775 7.5 20 7.5C21.23 7.5 22.28 7.25 22.975 6.9C23.2291 6.78192 23.4588 6.61744 23.6525 6.415C23.6945 6.36903 23.7276 6.31561 23.75 6.2575V6.235L23.72 6.1725C23.6411 6.05894 23.544 5.95926 23.4325 5.8775C22.495 5.16 21.2525 3.945 21.2525 2.205V1.25C21.2525 0.918912 21.3839 0.601348 21.6177 0.367C21.8516 0.132651 22.1689 0.000662176 22.5 5.11873e-10H28.4875C29.0105 -8.64083e-06 29.5278 0.109394 30.006 0.321179C30.4842 0.532964 30.9129 0.842448 31.2644 1.22975C31.6159 1.61704 31.8825 2.07359 32.0471 2.57006C32.2117 3.06652 32.2706 3.59192 32.22 4.1125L31.6125 11.25H32.205C32.6925 11.25 33.255 10.8825 33.8925 10.05C34.4175 9.365 35.2125 8.75 36.25 8.75C37.67 8.75 38.6175 9.8675 39.135 10.905C39.6925 12.0175 40 13.4675 40 15C40 16.5325 39.6925 17.9825 39.135 19.095C38.6175 20.1325 37.67 21.25 36.25 21.25C35.2125 21.25 34.4175 20.635 33.8925 19.95C33.255 19.1175 32.6925 18.75 32.205 18.75H31.6125L32.22 25.8875C32.2706 26.4081 32.2117 26.9335 32.0471 27.4299C31.8825 27.9264 31.6159 28.383 31.2644 28.7703C30.9129 29.1576 30.4842 29.467 30.006 29.6788C29.5278 29.8906 29.0105 30 28.4875 30H22.5C22.1685 30 21.8505 29.8683 21.6161 29.6339C21.3817 29.3995 21.25 29.0815 21.25 28.75V27.795C21.25 26.055 22.4925 24.84 23.43 24.1225C23.5415 24.0407 23.6386 23.9411 23.7175 23.8275L23.7475 23.765L23.75 23.75V23.7425C23.7279 23.6835 23.6948 23.6292 23.6525 23.5825C23.4594 23.3812 23.2305 23.2176 22.9775 23.1C22.275 22.75 21.225 22.5 20 22.5C18.775 22.5 17.72 22.75 17.025 23.1C16.7709 23.2181 16.5412 23.3826 16.3475 23.585C16.3055 23.631 16.2724 23.6844 16.25 23.7425V23.75L16.2525 23.765L16.2825 23.8275C16.3225 23.895 16.4075 23.9975 16.57 24.1225C17.5075 24.84 18.75 26.055 18.75 27.795V28.75C18.75 29.0815 18.6183 29.3995 18.3839 29.6339C18.1495 29.8683 17.8315 30 17.5 30H11.5125C10.9895 30 10.4722 29.8906 9.99399 29.6788C9.51576 29.467 9.08711 29.1576 8.7356 28.7703C8.38409 28.383 8.11748 27.9264 7.95291 27.4299C7.78834 26.9335 7.72944 26.4081 7.78 25.8875L8.39 18.75H7.795C7.3075 18.75 6.745 19.1175 6.1075 19.95C5.5825 20.635 4.7875 21.25 3.75 21.25C2.33 21.25 1.3825 20.1325 0.865 19.095C0.3075 17.9825 0 16.5325 0 15C0 13.4675 0.3075 12.0175 0.865 10.905C1.3825 9.8675 2.33 8.75 3.75 8.75C4.7875 8.75 5.5825 9.365 6.1075 10.05C6.745 10.8825 7.3075 11.25 7.795 11.25H8.39L7.78 4.1125ZM11.5125 2.5C11.3377 2.49982 11.1648 2.53631 11.005 2.6071C10.8452 2.6779 10.702 2.78143 10.5846 2.91101C10.4673 3.04058 10.3785 3.19333 10.3238 3.35937C10.2692 3.52542 10.25 3.70108 10.2675 3.875L10.27 3.8925L10.995 12.3925C11.0099 12.565 10.9888 12.7388 10.933 12.9027C10.8772 13.0667 10.7879 13.2173 10.6709 13.3449C10.5538 13.4725 10.4115 13.5744 10.253 13.6442C10.0945 13.7139 9.92318 13.7499 9.75 13.75H7.795C6.055 13.75 4.84 12.5075 4.1225 11.57C4.04074 11.4585 3.94106 11.3614 3.8275 11.2825L3.765 11.2525L3.75 11.25H3.7425C3.6835 11.2721 3.62921 11.3052 3.5825 11.3475C3.38121 11.5406 3.2176 11.7695 3.1 12.0225C2.75 12.725 2.5 13.775 2.5 15C2.5 16.225 2.75 17.28 3.1 17.975C3.275 18.325 3.45 18.5375 3.585 18.6525C3.63097 18.6945 3.68439 18.7276 3.7425 18.75H3.75L3.765 18.7475L3.8275 18.7175C3.94106 18.6386 4.04074 18.5415 4.1225 18.43C4.84 17.4925 6.055 16.25 7.795 16.25H9.75C9.92295 16.2501 10.094 16.2861 10.2523 16.3556C10.4107 16.4252 10.5529 16.5269 10.6699 16.6543C10.7869 16.7816 10.8762 16.9319 10.9322 17.0955C10.9881 17.2592 11.0095 17.4327 10.995 17.605L10.27 26.125C10.2525 26.2987 10.2717 26.4742 10.3261 26.64C10.3806 26.8059 10.4692 26.9585 10.5863 27.0881C10.7034 27.2176 10.8462 27.3212 11.0058 27.3921C11.1653 27.4631 11.3379 27.4998 11.5125 27.5H16.2075C16.0875 27.085 15.72 26.62 15.05 26.1075C14.365 25.5825 13.75 24.7875 13.75 23.75C13.75 22.33 14.8675 21.3825 15.905 20.865C17.0175 20.3075 18.4675 20 20 20C21.5325 20 22.9825 20.3075 24.095 20.865C25.1325 21.3825 26.25 22.33 26.25 23.75C26.25 24.7875 25.635 25.5825 24.95 26.1075C24.28 26.62 23.9125 27.0825 23.7925 27.5H28.4875C28.6623 27.5002 28.8352 27.4637 28.995 27.3929C29.1548 27.3221 29.298 27.2186 29.4154 27.089C29.5327 26.9594 29.6215 26.8067 29.6762 26.6406C29.7308 26.4746 29.75 26.2989 29.7325 26.125L29.73 26.1075L29.005 17.6075C28.9901 17.435 29.0112 17.2612 29.067 17.0973C29.1228 16.9333 29.2121 16.7827 29.3291 16.6551C29.4462 16.5275 29.5885 16.4256 29.747 16.3558C29.9055 16.2861 30.0768 16.2501 30.25 16.25H32.205C33.945 16.25 35.16 17.4925 35.8775 18.43C36.0025 18.5925 36.105 18.6775 36.1725 18.7175L36.235 18.7475L36.25 18.75H36.2575C36.3165 18.7279 36.3708 18.6948 36.4175 18.6525C36.6188 18.4594 36.7824 18.2305 36.9 17.9775C37.25 17.2775 37.5 16.2275 37.5 15C37.5 13.7725 37.25 12.72 36.9 12.025C36.7819 11.7709 36.6174 11.5412 36.415 11.3475C36.369 11.3055 36.3156 11.2724 36.2575 11.25H36.25L36.235 11.2525L36.1725 11.2825C36.0589 11.3614 35.9593 11.4585 35.8775 11.57C35.16 12.5075 33.945 13.75 32.205 13.75H30.25C30.0768 13.7499 29.9055 13.7139 29.747 13.6442C29.5885 13.5744 29.4462 13.4725 29.3291 13.3449C29.2121 13.2173 29.1228 13.0667 29.067 12.9027C29.0112 12.7388 28.9901 12.565 29.005 12.3925L29.73 3.875C29.7475 3.70128 29.7283 3.52584 29.6739 3.35997C29.6194 3.19409 29.5308 3.04147 29.4137 2.91193C29.2966 2.78239 29.1538 2.67881 28.9942 2.60787C28.8347 2.53692 28.6621 2.50017 28.4875 2.5H23.7925C23.9125 2.915 24.28 3.38 24.95 3.8925C25.635 4.4175 26.25 5.2125 26.25 6.25C26.25 7.67 25.1325 8.6175 24.095 9.135C22.9825 9.6925 21.5325 10 20 10C18.4675 10 17.0175 9.6925 15.905 9.135C14.8675 8.6175 13.75 7.67 13.75 6.25C13.75 5.2125 14.365 4.4175 15.05 3.8925C15.72 3.38 16.0875 2.9175 16.2075 2.5H11.5125Z" fill="#128EA8"/>
</svg>
