<svg width="36" height="30" viewBox="0 0 36 30" fill="none" xmlns="http://www.w3.org/2000/svg">
<path d="M14.625 0.25C13.7299 0.25 12.8714 0.605579 12.2385 1.23851C11.6056 1.87145 11.25 2.72989 11.25 3.625V4.75H3.375C2.47989 4.75 1.62145 5.10558 0.988515 5.73851C0.355579 6.37145 0 7.22989 0 8.125L0 26.125C0 27.0201 0.355579 27.8786 0.988515 28.5115C1.62145 29.1444 2.47989 29.5 3.375 29.5H32.625C33.5201 29.5 34.3786 29.1444 35.0115 28.5115C35.6444 27.8786 36 27.0201 36 26.125V8.125C36 7.22989 35.6444 6.37145 35.0115 5.73851C34.3786 5.10558 33.5201 4.75 32.625 4.75H24.75V3.625C24.75 2.72989 24.3944 1.87145 23.7615 1.23851C23.1286 0.605579 22.2701 0.25 21.375 0.25H14.625ZM14.625 2.5H21.375C21.6734 2.5 21.9595 2.61853 22.1705 2.8295C22.3815 3.04048 22.5 3.32663 22.5 3.625V4.75H13.5V3.625C13.5 3.32663 13.6185 3.04048 13.8295 2.8295C14.0405 2.61853 14.3266 2.5 14.625 2.5ZM18.8685 18.0565L33.75 14.0898V26.125C33.75 26.4234 33.6315 26.7095 33.4205 26.9205C33.2095 27.1315 32.9234 27.25 32.625 27.25H3.375C3.07663 27.25 2.79048 27.1315 2.5795 26.9205C2.36853 26.7095 2.25 26.4234 2.25 26.125V14.0875L17.1315 18.0565C17.7006 18.208 18.2994 18.208 18.8685 18.0565ZM3.375 7H32.625C32.9234 7 33.2095 7.11853 33.4205 7.3295C33.6315 7.54048 33.75 7.82663 33.75 8.125V11.761L18.2902 15.883C18.1001 15.9338 17.8999 15.9338 17.7097 15.883L2.25 11.761V8.125C2.25 7.82663 2.36853 7.54048 2.5795 7.3295C2.79048 7.11853 3.07663 7 3.375 7Z" fill="#128EA8"/>
</svg>
