<svg width="8" height="13" viewBox="0 0 8 13" fill="none" xmlns="http://www.w3.org/2000/svg">
<path fill-rule="evenodd" clip-rule="evenodd" d="M7.68741 0.146161C7.73398 0.192607 7.77092 0.247783 7.79612 0.308528C7.82133 0.369273 7.83431 0.434394 7.83431 0.500161C7.83431 0.565929 7.82133 0.63105 7.79612 0.691795C7.77092 0.75254 7.73398 0.807716 7.68741 0.854161L2.04041 6.50016L7.68741 12.1462C7.7813 12.24 7.83404 12.3674 7.83404 12.5002C7.83404 12.6329 7.7813 12.7603 7.68741 12.8542C7.59353 12.948 7.46619 13.0008 7.33341 13.0008C7.20064 13.0008 7.0733 12.948 6.97941 12.8542L0.979413 6.85416C0.93285 6.80771 0.895907 6.75254 0.8707 6.69179C0.845494 6.63105 0.83252 6.56593 0.83252 6.50016C0.83252 6.43439 0.845494 6.36927 0.8707 6.30853C0.895907 6.24778 0.93285 6.19261 0.979413 6.14616L6.97941 0.146161C7.02586 0.0995982 7.08103 0.0626553 7.14178 0.0374489C7.20252 0.0122424 7.26765 -0.000732422 7.33341 -0.000732422C7.39918 -0.000732422 7.4643 0.0122424 7.52505 0.0374489C7.58579 0.0626553 7.64097 0.0995982 7.68741 0.146161Z" fill="#8AA6AA"/>
</svg>
