<svg width="36" height="34" viewBox="0 0 36 34" fill="none" xmlns="http://www.w3.org/2000/svg">
<path d="M6.44852 32.4125C6.27302 33.4115 7.25852 34.1923 8.12702 33.7468L18.0045 28.6708L27.8798 33.7468C28.7483 34.1923 29.7338 33.4115 29.5583 32.4148L27.6908 21.7723L35.6153 14.2213C36.3578 13.5148 35.9753 12.2233 34.9808 12.0838L23.9603 10.5178L19.0463 0.78201C18.9527 0.58466 18.805 0.417922 18.6204 0.301168C18.4358 0.184414 18.2218 0.122437 18.0034 0.122437C17.785 0.122437 17.571 0.184414 17.3864 0.301168C17.2018 0.417922 17.0541 0.58466 16.9605 0.78201L12.0465 10.52L1.02602 12.086C0.033772 12.2255 -0.350978 13.517 0.389272 14.2235L8.31602 21.7745L6.44852 32.417V32.4125ZM17.4848 26.1868L9.19127 30.4483L10.7528 21.545C10.7904 21.3401 10.7765 21.129 10.7125 20.9307C10.6485 20.7324 10.5363 20.5531 10.386 20.4088L3.84752 14.1763L12.9645 12.8803C13.153 12.8508 13.3317 12.7766 13.4855 12.6639C13.6394 12.5511 13.764 12.4031 13.8488 12.2323L18 4.00176L22.1558 12.2323C22.2406 12.4031 22.3652 12.5511 22.519 12.6639C22.6729 12.7766 22.8515 12.8508 23.04 12.8803L32.157 14.174L25.6185 20.4065C25.4679 20.551 25.3555 20.7307 25.2914 20.9295C25.2274 21.1282 25.2138 21.3397 25.2518 21.545L26.8133 30.4483L18.5198 26.1868C18.3596 26.1035 18.1817 26.0601 18.0011 26.0601C17.8206 26.0601 17.645 26.1035 17.4848 26.1868Z" fill="#128EA8"/>
</svg>
